name 900061_42ik_rsw.mot
datacolumns 165
datarows 4
range 0.36666667 0.39166667
cursor 1.0 1.0 0.0
keys m_key
wrap
enforce_loops no
enforce_constraints no
calc_derivatives 0.008333
event_color 1.000000 0.000000 1.000000
endheader
                time	          calcn_r_tx	          calcn_r_ty	          calcn_r_tz	          calcn_r_r1	          calcn_r_r2	          calcn_r_r3	          calcn_l_tx	          calcn_l_ty	          calcn_l_tz	          calcn_l_r1	          calcn_l_r2	          calcn_l_r3	           pelvis_tz	           pelvis_tx	           pelvis_ty	         pelvis_tilt	         pelvis_list	     pelvis_rotation	       hip_flexion_r	     hip_adduction_r	      hip_rotation_r	        knee_angle_r	       ankle_angle_r	    subtalar_angle_r	         mtp_angle_r	       hip_flexion_l	     hip_adduction_l	      hip_rotation_l	        knee_angle_l	       ankle_angle_l	    subtalar_angle_l	         mtp_angle_l	    lumbar_extension	      lumbar_bending	     lumbar_rotation	     ground_force_px	     ground_force_py	     ground_force_pz	     ground_force_vx	     ground_force_vy	     ground_force_vz	     ground_force_px	     ground_force_py	     ground_force_pz	     ground_force_vx	     ground_force_vy	     ground_force_vz	     ground_torque_x	     ground_torque_y	     ground_torque_z	     ground_torque_x	     ground_torque_y	     ground_torque_z	           midhip_px	           midhip_py	           midhip_pz	            hip_r_px	            hip_r_py	            hip_r_pz	            hip_l_px	            hip_l_py	            hip_l_pz	           knee_r_px	           knee_r_py	           knee_r_pz	           knee_l_px	           knee_l_py	           knee_l_pz	          ankle_r_px	          ankle_r_py	          ankle_r_pz	          ankle_l_px	          ankle_l_py	          ankle_l_pz	          midasis_px	          midasis_py	          midasis_pz	           asis_r_px	           asis_r_py	           asis_r_pz	           asis_l_px	           asis_l_py	           asis_l_pz	           psis_r_px	           psis_r_py	           psis_r_pz	           psis_l_px	           psis_l_py	           psis_l_pz	     epicondLat_r_px	     epicondLat_r_py	     epicondLat_r_pz	     epicondLat_l_px	     epicondLat_l_py	     epicondLat_l_pz	     epicondMed_r_px	     epicondMed_r_py	     epicondMed_r_pz	     epicondMed_l_px	     epicondMed_l_py	     epicondMed_l_pz	   malleolusLat_r_px	   malleolusLat_r_py	   malleolusLat_r_pz	   malleolusLat_l_px	   malleolusLat_l_py	   malleolusLat_l_pz	  malleolusMedv_r_px	  malleolusMedv_r_py	  malleolusMedv_r_pz	  malleolusMedv_l_px	  malleolusMedv_l_py	  malleolusMedv_l_pz	             neck_px	             neck_py	             neck_pz	    subclavicle_r_px	    subclavicle_r_py	    subclavicle_r_pz	    subclavicle_l_px	    subclavicle_l_py	    subclavicle_l_pz	     sternalnotch_px	     sternalnotch_py	     sternalnotch_pz	   xyphoidprocess_px	   xyphoidprocess_py	   xyphoidprocess_pz	      thighwand_r_px	      thighwand_r_py	      thighwand_r_pz	      thighwand_l_px	      thighwand_l_py	      thighwand_l_pz	      upperleg1_r_px	      upperleg1_r_py	      upperleg1_r_pz	      upperleg1_l_px	      upperleg1_l_py	      upperleg1_l_pz	      upperleg2_r_px	      upperleg2_r_py	      upperleg2_r_pz	      upperleg2_l_px	      upperleg2_l_py	      upperleg2_l_pz	      shankwand_r_px	      shankwand_r_py	      shankwand_r_pz	      shankwand_l_px	      shankwand_l_py	      shankwand_l_pz	      lowerleg1_r_px	      lowerleg1_r_py	      lowerleg1_r_pz	      lowerleg1_l_px	      lowerleg1_l_py	      lowerleg1_l_pz	            toe_r_px	            toe_r_py	            toe_r_pz	            toe_l_px	            toe_l_py	            toe_l_pz
0.36666667	-1.53877176	0.02728176	0.27337503	-4.76797803	16.100974	16.70188208	-2.21524105	0.12350644	0.1532517	2.281954	8.9164293	-33.27400949	0.17523071	-1.71388482	0.86827962	4.79304289	-2.13181499	10.88702266	19.05667732	0.82679239	5.80660503	-8.70468301	1.05040961	0	0	-22.78796125	-5.2454118	-1.16826478	-20.29444671	5.96859826	0	0	-12.53355152	-0.78389042	-5.94151769	-1.51515332	0	0.2431422	-22.66115708	175.458577	1.4273343	-2.0421145	0	0.12957489	95.45154811	329.6601074	13.02209255	0	0.18683103	0	0	-0.51554024	0	-1.76326123	0.80130255	0.18902259	-1.75068096	0.8071408	0.26309659	-1.77584098	0.79546412	0.11494862	-1.57565332	0.46011995	0.24864456	-1.93226488	0.44785106	0.12202303	-1.5146828	0.06902691	0.2456043	-2.16305158	0.13485356	0.12847827	-1.71401372	0.87824103	0.1799697	-1.6975946	0.88137864	0.27933021	-1.73043276	0.87510382	0.08060905	-1.86480168	0.9002538	0.23712209	-1.87335966	0.90180015	0.182184	-1.58447654	0.46110635	0.29797703	-1.90223755	0.4511655	0.06448406	-1.61761691	0.44055074	0.20461435	-1.90688573	0.43797045	0.16598906	-1.51989792	0.06735316	0.28373839	-2.16237251	0.13317498	0.09002806	-1.49472501	0.08656114	0.21667273	-2.14145715	0.1327027	0.15419552	-1.83540635	1.31311769	0.20107509	-1.73135565	1.23862332	0.24574013	-1.73771616	1.2326207	0.14490422	-1.74848757	1.24675105	0.19030824	-1.69760381	1.07925983	0.19820276	-1.55618669	0.66872593	0.20249388	-1.72032872	0.56688805	0.12276322	-1.62663407	0.68720384	0.27187716	-1.78165574	0.63118871	0.07295406	-1.59553512	0.60810339	0.27444046	-1.80837697	0.54873677	0.07551782	-1.54556976	0.18462714	0.3534522	-2.12119351	0.24559331	0.02399767	-1.54364061	0.19163045	0.31174006	-2.10856417	0.24310116	0.06471758	-1.39854434	0.07572914	0.28114483	-2.07553075	0.04165868	0.1091866
0.375	-1.53358151	0.02581748	0.27212949	-3.92444615	15.336863	14.52250933	-2.20336292	0.13627935	0.15635074	3.32808836	10.76594407	-38.82678293	0.17747317	-1.69495722	0.86837616	5.277285	-2.6720767	10.85970117	18.78165048	1.84491432	4.5826688	-10.59238718	0.85489393	0	0	-22.40870939	-6.40319894	-2.84364402	-23.38848718	2.83877373	0	0	-12.49755569	-0.3404297	-5.62546705	-1.51420544	0	0.24258286	-27.60247007	258.7558314	5.82001187	-2.0397998	0	0.13029083	89.69808415	273.0901457	9.23886684	0	0.25729474	0	0	-0.44813641	0	-1.74421284	0.80101505	0.19154166	-1.73193599	0.8075215	0.26560942	-1.75648913	0.79450842	0.1174741	-1.55729847	0.45950453	0.24941078	-1.90858413	0.44381383	0.12025103	-1.50833113	0.06760353	0.24560282	-2.15223498	0.14233573	0.12778678	-1.69545783	0.87821662	0.18205534	-1.67940735	0.8822588	0.28155358	-1.71150828	0.87417487	0.08255702	-1.84658351	0.89965483	0.23841887	-1.85495998	0.90067839	0.18352746	-1.56672555	0.4608844	0.29902158	-1.88042809	0.44907475	0.06282866	-1.59894835	0.44145561	0.20644039	-1.88272262	0.43392311	0.16442258	-1.51320332	0.06615727	0.28379066	-2.15205789	0.1409399	0.08932691	-1.48841131	0.08425032	0.21633045	-2.13029233	0.13914287	0.15311131	-1.81999628	1.31258151	0.20186679	-1.7155334	1.23870855	0.24635329	-1.72197833	1.23277521	0.14544343	-1.7327783	1.24679411	0.19091242	-1.68090321	1.07959721	0.1985635	-1.53670907	0.66942611	0.20694528	-1.69840488	0.56579703	0.11997877	-1.60738464	0.68732996	0.27642287	-1.76139066	0.6301089	0.07215847	-1.57653013	0.6080632	0.27818574	-1.78713698	0.54715393	0.07394492	-1.53435018	0.18380157	0.35365853	-2.10701554	0.25215569	0.02394465	-1.53319727	0.19063575	0.311689	-2.09432503	0.2488748	0.06447022	-1.39218091	0.06996479	0.28055195	-2.07316598	0.04244011	0.10939627
0.38333333	-1.53105791	0.02451855	0.26905497	-2.71724392	13.84640807	12.01438102	-2.18974015	0.14824263	0.15906509	4.46846364	12.44090168	-43.8968068	0.18076772	-1.67714059	0.86828747	5.61036928	-3.01503209	10.50742581	18.68447085	2.76042159	2.90022113	-12.63556287	0.48826328	0	0	-21.80461963	-7.33012734	-4.60914901	-26.47927047	0.07212939	0	0	-12.40487472	0.30590999	-5.1747424	-1.51321289	0	0.24214342	-27.56266056	300.2328222	9.16900813	-2.0368269	0	0.13096436	76.36021232	208.9035948	5.71861912	0	0.29041896	0	0	-0.37462668	0	-1.72533549	0.80094741	0.19420764	-1.71338402	0.80814926	0.26826366	-1.7372864	0.79374545	0.12015197	-1.54001468	0.45866977	0.25020355	-1.88371682	0.43947629	0.11824656	-1.50351477	0.06639	0.24563811	-2.13947498	0.15001838	0.12704795	-1.67702022	0.87836776	0.18426059	-1.66137462	0.88335549	0.28388733	-1.69266578	0.87338049	0.08463385	-1.82848974	0.8993385	0.23958444	-1.83666747	0.89981345	0.18475929	-1.54932695	0.46078714	0.30027616	-1.85728654	0.44675818	0.06096569	-1.5807107	0.44273111	0.20814927	-1.8573876	0.42963001	0.16223981	-1.50815003	0.0651293	0.28385566	-2.13984977	0.14896583	0.08858005	-1.48335244	0.08218679	0.2161712	-2.11715208	0.14570191	0.15189918	-1.80457294	1.3122591	0.20274682	-1.69970017	1.23894929	0.24692213	-1.70628193	1.23321591	0.14595589	-1.71708492	1.24706572	0.19150233	-1.66423939	1.08015413	0.19866999	-1.51693295	0.67025479	0.21242941	-1.6756876	0.56507712	0.11707653	-1.58823262	0.68751213	0.28176447	-1.7403565	0.62912026	0.07131747	-1.55787393	0.6079945	0.28256877	-1.76492622	0.54565108	0.07214958	-1.52451819	0.18302814	0.35390613	-2.09114869	0.25887833	0.02384927	-1.52383666	0.189946	0.31179003	-2.07827198	0.25477072	0.06414396	-1.38751932	0.0639872	0.28040456	-2.06989545	0.04377763	0.10969772
0.39166667	-1.5300412	0.02396884	0.266628	-1.7446675	12.42534805	9.63920067	-2.17290785	0.16037942	0.16291121	5.49378113	14.15337166	-49.42105161	0.18245504	-1.65954027	0.86849549	6.02967165	-3.5531739	10.38408049	18.46916123	3.66486896	1.14902689	-14.85113811	0.44545606	0	0	-20.88351702	-8.42071439	-6.07369994	-29.96262641	-3.12322331	0	0	-12.29545055	0.88349724	-4.82335523	-1.51153357	0	0.24215924	-30.11593212	309.9550641	8.51900083	-2.03248046	0	0.13188629	54.61136543	147.5398949	2.86961709	0	0.34038403	0	0	-0.30849488	0	-1.70668859	0.80108006	0.19697497	-1.69503684	0.80900281	0.27100519	-1.71833984	0.7931573	0.12294519	-1.5241508	0.45754291	0.25105504	-1.85776897	0.43487895	0.11611227	-1.49982093	0.06542858	0.2457395	-2.12475686	0.15791646	0.12626008	-1.65876341	0.87867358	0.1865108	-1.64349893	0.88464913	0.28625289	-1.67402784	0.87269851	0.08676875	-1.81054755	0.89929299	0.24064975	-1.81854174	0.89917728	0.18590463	-1.53254998	0.4607074	0.30171176	-1.83289717	0.44423713	0.05899635	-1.56346737	0.44420772	0.20963793	-1.83097917	0.42515359	0.15962602	-1.50425138	0.06431298	0.28397719	-2.12565817	0.15719991	0.08778754	-1.47912995	0.08044943	0.21622347	-2.10208558	0.15241162	0.15061384	-1.78912398	1.31213046	0.20369422	-1.68385504	1.23932504	0.24745196	-1.69060594	1.23390505	0.14644364	-1.70139481	1.2475367	0.19207679	-1.64761145	1.08089979	0.19855998	-1.49715306	0.67096003	0.21852103	-1.65233279	0.56474233	0.11416386	-1.56929071	0.68765977	0.28753041	-1.71876312	0.62820469	0.07050072	-1.53979008	0.60777547	0.28725832	-1.74191637	0.54425228	0.07024268	-1.51571715	0.18229175	0.35427208	-2.07344554	0.26559432	0.02361793	-1.51525532	0.18950891	0.31215528	-2.06029425	0.26068583	0.06366281	-1.38407121	0.05826896	0.28067059	-2.06524344	0.04592123	0.10999341
